#!OML:ASF F:\VICON\USERDATA\INSTALL\rory3\rory3.ASF
:FULLY-SPECIFIED
:DEGREES
415
root 2.93249 18.0056 -2.59522 194.927 -43.2885 -156.105
lowerback -1.51618 7.42212 -8.96024
upperback -7.74757 9.41435 -1.52366
thorax -8.60769 5.1017 2.64323
lowerneck -25.7203 -3.34404 -6.73653
upperneck 35.6166 -3.15007 0.568053
head 17.6293 -2.43364 0.623566
rclavicle -3.57812e-014 -3.81667e-014
rhumerus 340.831 60.8985 -461.793
rradius 130.401
rwrist -16.0748
rhand -13.4221 43.9099
rfingers 7.12502
rthumb 12.6863 14.3152
lclavicle -3.57812e-014 -3.81667e-014
lhumerus -42.3977 -50.5129 106.198
lradius 76.0064
lwrist 36.7709
lhand 27.8049 16.7846
lfingers 7.12502
lthumb 51.7231 37.0533
rfemur -59.6242 3.90696 383.567
rtibia 42.5575
rfoot 188.116 167.723
rtoes 38.8728
lfemur -51.2744 -23.1504 25.2115
ltibia 43.0599
lfoot -193.971 -156.832
ltoes -30.6228
416
root 2.83337 18.0305 -2.44709 196.389 -36.5311 -157.007
lowerback -3.39256 7.84552 -10.1359
upperback -7.39339 10.1587 -1.62965
thorax -7.45669 5.50038 3.37466
lowerneck -26.1287 -4.67717 -7.69632
upperneck 35.6208 -4.85026 0.880634
head 17.8725 -3.19055 0.531056
rclavicle -1.82882e-014 9.54166e-015
rhumerus 342 59.9168 -461.862
rradius 128.903
rwrist -16.7193
rhand -12.7549 48.0956
rfingers 7.12502
rthumb 13.3294 18.5419
lclavicle -1.82882e-014 9.54166e-015
lhumerus -41.2159 -47.8754 104.111
lradius 74.0221
lwrist 28.4002
lhand 24.3237 14.1462
lfingers 7.12502
lthumb 48.5396 36.1033
rfemur -60.6525 1.15616 385.435
rtibia 41.9278
rfoot 189.132 170.846
rtoes 39.5966
lfemur -47.3971 -23.5417 23.8559
ltibia 42.3299
lfoot -193.416 -157.734
ltoes -31.1621
417
root 2.71611 18.0512 -2.31126 196.531 -30.9618 -157.674
lowerback -4.1518 7.79232 -10.6348
upperback -6.7455 10.2197 -1.67441
thorax -6.41447 5.50871 3.76376
lowerneck -27.162 -5.28041 -7.73543
upperneck 35.554 -5.85438 1.39859
head 18.173 -3.49301 0.51823
rclavicle 1.23246e-013 -3.02153e-014
rhumerus 342.821 58.263 -462.022
rradius 127.055
rwrist -15.4534
rhand -11.2344 49.1178
rfingers 7.12502
rthumb 14.7946 19.6659
lclavicle 1.23246e-013 -3.02153e-014
lhumerus -39.7805 -44.7064 101.062
lradius 72.4135
lwrist 18.8762
lhand 21.9611 13.2224
lfingers 7.12502
lthumb 46.3574 36.1667
rfemur -60.236 3.58344 382.752
rtibia 41.3787
rfoot 186.379 166.787
rtoes 39.6624
lfemur -43.1538 -24.5514 21.9637
ltibia 41.69
lfoot -192.475 -160.099
ltoes -32.9043
418
root 2.58679 18.0139 -2.11481 197.955 -24.5031 -157.681
lowerback -6.22453 7.87547 -9.94383
upperback -6.52865 10.5211 -2.11944
thorax -4.83182 5.53726 3.28998
lowerneck -28.3713 -5.95516 -7.66636
upperneck 35.2963 -7.12132 2.27091
head 18.4513 -3.8092 0.581985
rclavicle -5.56597e-015 1.20861e-013
rhumerus 343.711 57.3014 -461.601
rradius 124.674
rwrist -12.4353
rhand -11.3016 49.3173
rfingers 7.12502
rthumb 14.7299 19.8607
lclavicle -5.56597e-015 1.20861e-013
lhumerus -37.5271 -41.0797 97.3476
lradius 70.04
lwrist 9.29695
lhand 19.0171 10.9217
lfingers 7.12502
lthumb 43.6184 34.9455
rfemur -61.8044 1.17665 384.334
rtibia 40.9763
rfoot 186.174 168.671
rtoes 43.5809
lfemur -40.2571 -23.6339 20.4143
ltibia 41.5756
lfoot -190.47 -162.398
ltoes -35.4921
419
root 2.46122 17.9503 -1.91852 199.23 -18.4937 -157.432
lowerback -6.41767 8.19544 -8.57038
upperback -7.4872 10.7301 -3.02535
thorax -5.32669 5.53995 1.60206
lowerneck -28.3754 -6.66345 -7.83448
upperneck 35.3809 -8.84758 3.74726
head 18.7449 -4.29958 0.865236
rclavicle -1.72545e-013 -1.90833e-014
rhumerus 342.663 54.4868 -462.406
rradius 121.95
rwrist -6.06574
rhand -9.86567 47.5205
rfingers 7.12502
rthumb 16.113 18.1703
lclavicle -1.72545e-013 -1.90833e-014
lhumerus -37.2597 -38.2638 94.5376
lradius 67.2436
lwrist 0.0798524
lhand 14.9807 7.61715
lfingers 7.12502
lthumb 39.8335 32.8932
rfemur -63.5432 -1.45596 386.384
rtibia 40.514
rfoot 186.172 170.598
rtoes 45.9682
lfemur -37.8693 -22.4669 18.9422
ltibia 42.1233
lfoot -187.821 -165.11
ltoes -36.6539
420
root 2.2893 17.8978 -1.76732 200.259 -13.7668 -157.535
lowerback -7.55943 8.17749 -7.03574
upperback -7.89432 10.6107 -3.77138
thorax -4.66472 5.33218 0.222711
lowerneck -27.0736 -7.27662 -6.99658
upperneck 34.6189 -10.6943 4.59401
head 18.1609 -4.84435 0.695927
rclavicle -1.39149e-013 -8.5875e-014
rhumerus 341.737 51.0983 -462.021
rradius 118.895
rwrist 1.26804
rhand -7.72311 45.7082
rfingers 7.12502
rthumb 18.1752 16.5374
lclavicle -1.39149e-013 -8.5875e-014
lhumerus -36.3979 -35.9026 91.7245
lradius 64.4497
lwrist -7.82986
lhand 11.3794 5.10985
lfingers 7.12502
lthumb 36.4334 31.3187
rfemur -64.9848 -5.56859 388.416
rtibia 40.0934
rfoot 186.26 172.943
rtoes 48.5527
lfemur -36.1216 -22.3893 17.0607
ltibia 43.3038
lfoot -186.51 -167.498
ltoes -38.1178
421
root 2.18469 17.7437 -1.50502 201.397 -7.9795 -156.67
lowerback -7.34319 8.22067 -5.64446
upperback -8.26046 10.5222 -3.83749
thorax -4.88377 5.1997 -0.617332
lowerneck -26.7931 -7.71996 -6.30945
upperneck 33.6432 -11.8321 5.11699
head 17.6535 -5.15571 0.556183
rclavicle 9.30312e-014 -6.36111e-015
rhumerus 343.241 49.0757 -458.872
rradius 115.656
rwrist 9.93061
rhand -6.36894 43.8184
rfingers 7.12502
rthumb 19.4777 14.774
lclavicle 9.30312e-014 -6.36111e-015
lhumerus -33.9797 -32.9091 88.3703
lradius 62.0566
lwrist -13.4754
lhand 9.04788 4.73559
lfingers 7.12502
lthumb 34.2227 31.4696
rfemur -67.7938 -7.82953 391.58
rtibia 39.5653
rfoot 187.925 174.833
rtoes 51.7021
lfemur -34.6048 -20.3674 15.9869
ltibia 45.0074
lfoot -186.987 -169.135
ltoes -39.0636
422
root 2.02749 17.609 -1.32506 202.45 -3.64671 -155.893
lowerback -7.19783 7.22947 -3.22898
upperback -8.9471 10.4734 -3.99167
thorax -5.17487 5.64434 -2.13646
lowerneck -25.5381 -8.2785 -6.34693
upperneck 32.8483 -13.2752 6.36199
head 17.203 -5.65886 0.802758
rclavicle -7.95139e-016 7.31528e-014
rhumerus 343.453 47.0941 -456.346
rradius 111.775
rwrist 18.8986
rhand -5.54591 43.0631
rfingers 7.12502
rthumb 20.2688 14.1007
lclavicle -7.95139e-016 7.31528e-014
lhumerus -32.7126 -31.586 85.6942
lradius 60.5816
lwrist -16.6489
lhand 5.93108 3.60163
lfingers 7.12502
lthumb 31.2577 30.9537
rfemur -70.4602 -11.423 395.19
rtibia 39.1893
rfoot 188.953 176.293
rtoes 55.7539
lfemur -33.4582 -19.5772 14.9454
ltibia 46.76
lfoot -188.351 -168.959
ltoes -39.4818
423
root 1.87641 17.4591 -1.14963 203.289 0.484578 -155.349
lowerback -6.31339 7.09191 -1.52367
upperback -9.73449 10.274 -4.03644
thorax -6.21045 5.46934 -3.30442
lowerneck -23.7774 -8.81837 -6.15216
upperneck 32.1534 -14.6608 7.10958
head 16.6359 -6.24038 0.824941
rclavicle 2.05146e-013 -3.18055e-015
rhumerus 343.77 46.1835 -453.029
rradius 106.622
rwrist 27.0216
rhand -12.9398 36.2112
rfingers 7.12502
rthumb 13.1512 6.64593
lclavicle 2.05146e-013 -3.18055e-015
lhumerus -31.6111 -30.93 83.6594
lradius 59.777
lwrist -17.8748
lhand 3.68396 2.53681
lfingers 7.12502
lthumb 29.1139 30.2809
rfemur -73.4718 -15.0472 398.975
rtibia 38.9266
rfoot 192.318 180.342
rtoes 56.916
lfemur -32.4694 -19.1426 13.6678
ltibia 48.5152
lfoot -191.071 -167.152
ltoes -43.3406
